<svg xmlns="http://www.w3.org/2000/svg" viewBox="0 0 420 70" width="100%" height="100%" fill="none">
  <!-- Left Side: Clima Social Real Logo -->
  <g transform="translate(0, 5)">
    <!-- 4-node swirl emblem -->
    <g transform="translate(4, 0)">
      <svg width="56" height="56" viewBox="0 0 500 500">
        <circle cx="250" cy="140" r="115" fill="#C23B49"/>
        <path d="M165 100C190 70 230 50 270 55C240 70 210 100 200 135Z" fill="#9E2533" opacity="0.35"/>
        <circle cx="360" cy="250" r="115" fill="#4F7E90"/>
        <path d="M400 165C430 190 450 230 445 270C430 240 400 210 365 200Z" fill="#365C6B" opacity="0.35"/>
        <circle cx="250" cy="360" r="115" fill="#F0A200"/>
        <path d="M335 400C310 430 270 450 230 445C260 430 290 400 300 365Z" fill="#B87A00" opacity="0.35"/>
        <circle cx="140" cy="250" r="115" fill="#40004F"/>
        <path d="M100 335C70 310 50 270 55 230C70 260 100 290 135 300Z" fill="#280033" opacity="0.35"/>
        <path d="M250 155C240 210 210 240 155 250C210 260 240 290 250 345C260 290 290 260 345 250C290 240 260 210 250 155Z" fill="#FFFFFF"/>
        <circle cx="250" cy="250" r="42" fill="#FFFFFF"/>
      </svg>
    </g>
    <text x="68" y="24" font-family="'Plus Jakarta Sans', Arial, sans-serif" font-size="16" font-weight="900" letter-spacing="-0.03em" fill="#1E1627">CLIMA <tspan fill="#C23B49">SOCIAL</tspan></text>
    <text x="68" y="38" font-family="'JetBrains Mono', monospace" font-size="8" font-weight="700" letter-spacing="0.1em" fill="#4F7E90">ESTUDIOS &amp; ASESORAMIENTO</text>
  </g>

  <!-- Middle Institutional Separator -->
  <g transform="translate(232, 10)">
    <line x1="0" y1="0" x2="0" y2="44" stroke="#E2E8F0" stroke-width="1.5"/>
    <circle cx="0" cy="22" r="3" fill="#C23B49"/>
  </g>

  <!-- Right Side: Official GIZ Logo -->
  <g transform="translate(248, 8)">
    <rect width="64" height="48" rx="3" fill="#E2001A"/>
    <g fill="#FFFFFF">
      <path d="M24 28.5C24 24 21 21.5 17.5 21.5C14 21.5 11 24 11 28.5C11 33 14 35.5 17.5 35.5C21 35.5 24 33 24 28.5ZM24 38.5C24 42 21.5 43.5 17.5 43.5C14.5 43.5 12.5 42.5 11.5 41.2L9.5 43.5C11.2 45.8 14 47 17.5 47C24 47 27.5 43.5 27.5 37V22H24V23.8C22.5 22.2 20 21.2 17.5 21.2C11.5 21.2 7.5 25.5 7.5 32C7.5 38.5 11.5 42.8 17.5 42.8C20 42.8 22.5 41.8 24 40.2V38.5Z" transform="translate(2, -4) scale(0.85)"/>
      <circle cx="31" cy="18" r="2.2"/>
      <rect x="28.8" y="22.5" width="4.4" height="15.5" rx="1"/>
      <path d="M38 22.5H50V26.2L42 34.5H50.5V38H37.5V34.3L45.5 26H38V22.5Z"/>
    </g>

    <text x="72" y="18" font-family="'Plus Jakarta Sans', Arial, sans-serif" font-size="7.5" font-weight="600" fill="#64748B">En cooperación con:</text>
    <text x="72" y="29" font-family="'Plus Jakarta Sans', Arial, sans-serif" font-size="9" font-weight="800" fill="#1E293B">GIZ Ecuador</text>
    <text x="72" y="40" font-family="'Plus Jakarta Sans', Arial, sans-serif" font-size="7.5" font-weight="700" fill="#E2001A">Deutsche Zusammenarbeit</text>
  </g>
</svg>
